<svg width="34" height="32" viewBox="0 0 34 32" fill="none" xmlns="http://www.w3.org/2000/svg">
<g clip-path="url(#clip0_517_3787)">
<path d="M30.1364 16.1023V30.8565H3.86365V16.1023" stroke="#FF281E" stroke-width="1.6" stroke-linecap="round" stroke-linejoin="round"/>
<path d="M14.6818 15.1544V30.8565" stroke="#FF281E" stroke-width="1.6" stroke-linecap="round" stroke-linejoin="round"/>
<path d="M12.3636 23.1423V23.9137" stroke="#FF281E" stroke-width="1.6" stroke-linecap="round" stroke-linejoin="round"/>
<path d="M27.8182 26.9994L26.2727 28.5422" stroke="#FF281E" stroke-width="1.6" stroke-linecap="round" stroke-linejoin="round"/>
<path d="M27.8182 23.1423L22.4091 28.5422" stroke="#FF281E" stroke-width="1.6" stroke-linecap="round" stroke-linejoin="round"/>
<path d="M1.54547 10.0283V13.114C1.54547 14.8178 2.92962 16.1996 4.63638 16.1996C6.34314 16.1996 7.72729 14.8178 7.72729 13.114C7.72729 14.8178 9.11144 16.1996 10.8182 16.1996C12.525 16.1996 13.9091 14.8178 13.9091 13.114C13.9091 14.8178 15.2933 16.1996 17 16.1996C18.7068 16.1996 20.0909 14.8178 20.0909 13.114C20.0909 14.8178 21.4751 16.1996 23.1818 16.1996C24.8886 16.1996 26.2727 14.8178 26.2727 13.114C26.2727 14.8178 27.6569 16.1996 29.3637 16.1996C31.0704 16.1996 32.4546 14.8178 32.4546 13.114V10.0283" stroke="#FF281E" stroke-width="1.6" stroke-linecap="round" stroke-linejoin="round"/>
<path d="M32.4546 10.0284L29.3637 5.3999H17H4.63638L1.54547 10.0284" stroke="#FF281E" stroke-width="1.6" stroke-linecap="round" stroke-linejoin="round"/>
<path d="M4.63635 5.39984V0.771362H29.3636V5.39984" stroke="#FF281E" stroke-width="1.6" stroke-linecap="round" stroke-linejoin="round"/>
<path d="M13.9091 13.1141V12.3427" stroke="#FF281E" stroke-width="1.6" stroke-linecap="round" stroke-linejoin="round"/>
<path d="M7.72729 13.1141V12.3427" stroke="#FF281E" stroke-width="1.6" stroke-linecap="round" stroke-linejoin="round"/>
<path d="M20.0909 13.1141V12.3427" stroke="#FF281E" stroke-width="1.6" stroke-linecap="round" stroke-linejoin="round"/>
<path d="M26.2727 13.1141V12.3427" stroke="#FF281E" stroke-width="1.6" stroke-linecap="round" stroke-linejoin="round"/>
<path d="M1.54547 10.0283H32.4546" stroke="#FF281E" stroke-width="1.6" stroke-linecap="round" stroke-linejoin="round"/>
<path d="M0.772705 30.8564H3.86361" stroke="#FF281E" stroke-width="1.6" stroke-linecap="round" stroke-linejoin="round"/>
<path d="M30.1364 30.8564H33.2273" stroke="#FF281E" stroke-width="1.6" stroke-linecap="round" stroke-linejoin="round"/>
</g>
<defs>
<clipPath id="clip0_517_3787">
<rect width="34" height="31.6279" fill="white"/>
</clipPath>
</defs>
</svg>
