<svg width="30" height="33" viewBox="0 0 30 33" fill="none" xmlns="http://www.w3.org/2000/svg">
<g clip-path="url(#clip0_517_3764)">
<path d="M23.8838 12.984V9.08198C23.8838 5.05009 19.8383 0.68335 14.6583 0.68335C9.47836 0.68335 5.4328 5.05009 5.4328 9.08198V10.9339" stroke="#FF281E" stroke-width="1.6" stroke-miterlimit="10"/>
<path d="M21.1504 13.6675V15.0616C21.1504 17.0365 20.344 19.1686 18.41 20.4602" stroke="#FF281E" stroke-width="1.6" stroke-miterlimit="10"/>
<path d="M10.8998 4.78357C10.8998 8.61728 18.6492 13.6674 22.5171 13.6674" stroke="#FF281E" stroke-width="1.6" stroke-miterlimit="10"/>
<path d="M10.8998 8.20044C9.25968 8.88381 7.48291 10.6879 7.48291 12.984V15.0342C7.49658 17.4396 9.26651 19.8451 12.0547 21.082" stroke="#FF281E" stroke-width="1.6" stroke-miterlimit="10"/>
<path d="M17.0501 23.2347C17.0501 23.9864 16.4351 24.6014 15.6834 24.6014H15C14.2483 24.6014 13.6332 23.9864 13.6332 23.2347C13.6332 22.483 14.2483 21.8679 15 21.8679H15.6834C16.4351 21.8679 17.0501 22.483 17.0501 23.2347Z" stroke="#FF281E" stroke-width="1.6" stroke-miterlimit="10"/>
<path d="M16.3668 23.2347H17.0706C20.836 23.2347 23.8702 20.6174 23.8702 17.0433" stroke="#FF281E" stroke-width="1.6" stroke-miterlimit="10"/>
<path d="M25.2506 10.934H23.8839V17.0843H25.2506C26.0023 17.0843 26.6173 16.4693 26.6173 15.7176V12.3007C26.6173 11.549 26.0023 10.934 25.2506 10.934Z" stroke="#FF281E" stroke-width="1.6" stroke-miterlimit="10"/>
<path d="M4.06608 10.934H5.43283V17.0843H4.06608C3.31437 17.0843 2.69934 16.4693 2.69934 15.7176V12.3007C2.69934 11.549 3.31437 10.934 4.06608 10.934Z" stroke="#FF281E" stroke-width="1.6" stroke-miterlimit="10"/>
<path d="M10.2164 19.8177V25.2847" stroke="#FF281E" stroke-width="1.6" stroke-miterlimit="10"/>
<path d="M10.2134 24.5991L8.16461 26.6479L12.9485 31.4318L14.9973 29.383L10.2134 24.5991Z" stroke="#FF281E" stroke-width="1.6" stroke-miterlimit="10"/>
<path d="M19.7829 24.5984L14.9991 29.3822L17.0479 31.431L21.8318 26.6472L19.7829 24.5984Z" stroke="#FF281E" stroke-width="1.6" stroke-miterlimit="10"/>
<path d="M8.16632 26.6515L4.28477 27.5125C2.87702 27.8269 1.74263 28.8519 1.28477 30.2187L0.649231 32.1185" stroke="#FF281E" stroke-width="1.6" stroke-miterlimit="10"/>
<path d="M21.8337 26.6515L25.7153 27.5125C27.123 27.8269 28.2574 28.8519 28.7153 30.2187L29.3508 32.1185" stroke="#FF281E" stroke-width="1.6" stroke-miterlimit="10"/>
</g>
<defs>
<clipPath id="clip0_517_3764">
<rect width="30" height="32.3986" fill="white"/>
</clipPath>
</defs>
</svg>
