<svg width="34" height="31" viewBox="0 0 34 31" fill="none" xmlns="http://www.w3.org/2000/svg">
<g clip-path="url(#clip0_517_3779)">
<path d="M30.2446 5.65116L19.4665 16.4579L18.3679 20.4359L22.3388 19.3301L33.1168 8.52338C33.3969 8.24334 33.3035 7.69044 32.9086 7.29551L31.4725 5.85939C31.0775 5.46446 30.5246 5.37111 30.2446 5.65116Z" stroke="#FF281E" stroke-width="1.6" stroke-linejoin="round"/>
<path d="M31.5945 10.0528L28.7223 7.18054" stroke="#FF281E" stroke-width="1.6" stroke-linejoin="round"/>
<path d="M25.132 8.61665V4.3083C25.132 2.32647 23.5236 0.718018 21.5417 0.718018H4.30836C2.32653 0.718018 0.718079 2.32647 0.718079 4.3083V20.8236C0.718079 22.8055 2.32653 24.4139 4.30836 24.4139H6.46254V28.7222C6.46254 29.4116 7.33857 29.706 7.75504 29.1531L12.925 24.4139H21.5417C23.5236 24.4139 25.132 22.8055 25.132 20.8236V19.3875" stroke="#FF281E" stroke-width="1.6" stroke-miterlimit="10"/>
<path d="M10.7709 7.89868V11.489" stroke="#FF281E" stroke-width="1.6" stroke-linejoin="round"/>
<path d="M14.3611 7.89868V11.489" stroke="#FF281E" stroke-width="1.6" stroke-linejoin="round"/>
<path d="M16.8672 12.9465C16.1563 14.6196 14.4976 15.7972 12.566 15.7972C10.6344 15.7972 8.97571 14.6196 8.26483 12.9465" stroke="#FF281E" stroke-width="1.6" stroke-linejoin="round"/>
</g>
<defs>
<clipPath id="clip0_517_3779">
<rect width="34" height="30.1584" fill="white"/>
</clipPath>
</defs>
</svg>
